<svg width="20" height="14" fill="none" xmlns="http://www.w3.org/2000/svg"><path d="M19.15 1.325C18.608.36 18.019.182 16.82.115 15.623.034 12.611 0 10.002 0 7.39 0 4.376.034 3.18.114 1.984.182 1.394.359.846 1.325.288 2.289 0 3.949 0 6.871v.01c0 2.91.287 4.583.846 5.537.548.965 1.136 1.14 2.333 1.22 1.197.07 4.21.112 6.823.112 2.61 0 5.62-.041 6.82-.11 1.198-.081 1.787-.256 2.33-1.221.563-.954.848-2.627.848-5.537v-.01c0-2.923-.285-4.583-.85-5.547Zm-11.65 9.3v-7.5l6.25 3.75-6.25 3.75Z" fill="#FEFEFE"/></svg>