<svg width="59" height="42" fill="none" xmlns="http://www.w3.org/2000/svg"><path d="M17.314 18.43V23H2.584v-4.57h14.73ZM17.14 7.18 5.239 23H1.177v-3.305L13.06 3.98h4.078v3.2Zm-1.951-3.2v4.57H1.528V3.98h13.659Zm4.025 9.704v-.37c0-1.394.2-2.677.598-3.85.398-1.183.984-2.208 1.757-3.075.774-.868 1.729-1.541 2.866-2.022 1.136-.492 2.449-.738 3.937-.738 1.5 0 2.819.246 3.955.738 1.149.48 2.11 1.154 2.883 2.022.773.867 1.36 1.892 1.758 3.076.398 1.172.598 2.455.598 3.85v.369c0 1.382-.2 2.666-.598 3.85a8.971 8.971 0 0 1-1.758 3.075c-.774.868-1.729 1.541-2.865 2.022-1.137.48-2.45.72-3.938.72s-2.806-.24-3.955-.72c-1.148-.48-2.11-1.154-2.883-2.022a8.971 8.971 0 0 1-1.758-3.076c-.398-1.183-.597-2.467-.597-3.85Zm5.924-.37v.37c0 .714.052 1.382.158 2.004a5.47 5.47 0 0 0 .527 1.634c.246.457.58.815 1.002 1.073.422.257.95.386 1.582.386.621 0 1.137-.129 1.547-.386a2.764 2.764 0 0 0 1.002-1.073 5.467 5.467 0 0 0 .527-1.634c.106-.622.159-1.29.159-2.004v-.37c0-.691-.053-1.341-.159-1.95a5.467 5.467 0 0 0-.527-1.635 2.836 2.836 0 0 0-1.002-1.125c-.422-.27-.95-.405-1.582-.405-.621 0-1.142.135-1.564.405-.41.269-.739.644-.985 1.125a5.47 5.47 0 0 0-.527 1.634c-.106.61-.158 1.26-.158 1.952Zm14.326.37v-.37c0-1.394.2-2.677.597-3.85.399-1.183.985-2.208 1.758-3.075.774-.868 1.729-1.541 2.866-2.022 1.136-.492 2.449-.738 3.937-.738 1.5 0 2.819.246 3.955.738 1.149.48 2.11 1.154 2.883 2.022.773.867 1.36 1.892 1.758 3.076.398 1.172.598 2.455.598 3.85v.369c0 1.382-.2 2.666-.598 3.85a8.971 8.971 0 0 1-1.758 3.075c-.774.868-1.729 1.541-2.865 2.022-1.137.48-2.45.72-3.938.72s-2.806-.24-3.955-.72c-1.148-.48-2.11-1.154-2.883-2.022a8.971 8.971 0 0 1-1.758-3.076c-.398-1.183-.597-2.467-.597-3.85Zm5.924-.37v.37c0 .714.053 1.382.158 2.004a5.47 5.47 0 0 0 .527 1.634c.246.457.58.815 1.002 1.073.422.257.95.386 1.582.386.621 0 1.137-.129 1.547-.386a2.764 2.764 0 0 0 1.002-1.073 5.467 5.467 0 0 0 .527-1.634c.106-.622.159-1.29.159-2.004v-.37c0-.691-.053-1.341-.159-1.95a5.467 5.467 0 0 0-.527-1.635 2.836 2.836 0 0 0-1.002-1.125c-.422-.27-.95-.405-1.582-.405-.621 0-1.143.135-1.564.405-.41.269-.739.644-.985 1.125a5.47 5.47 0 0 0-.527 1.634c-.105.61-.158 1.26-.158 1.952ZM1.466 35.342v-.185c0-.697.1-1.339.299-1.925a4.38 4.38 0 0 1 .879-1.538c.386-.433.864-.77 1.432-1.01.569-.247 1.225-.37 1.969-.37.75 0 1.41.123 1.977.37.575.24 1.055.577 1.442 1.01.387.434.68.947.879 1.538.199.586.299 1.228.299 1.925v.185c0 .691-.1 1.333-.3 1.925a4.486 4.486 0 0 1-.878 1.538c-.387.433-.864.77-1.433 1.01-.568.24-1.224.36-1.969.36-.744 0-1.403-.12-1.977-.36a3.932 3.932 0 0 1-1.441-1.01 4.487 4.487 0 0 1-.88-1.538 5.997 5.997 0 0 1-.298-1.925Zm2.962-.185v.185c0 .357.026.691.079 1.002.053.31.14.583.264.817.123.229.29.407.5.536.211.13.475.194.792.194.31 0 .568-.065.773-.194.21-.129.378-.307.5-.536.124-.234.212-.507.265-.817.052-.31.079-.645.079-1.002v-.185c0-.345-.027-.67-.08-.975a2.734 2.734 0 0 0-.263-.818 1.417 1.417 0 0 0-.501-.562c-.211-.135-.475-.202-.791-.202-.31 0-.571.067-.782.202-.205.135-.37.322-.492.562-.124.235-.211.507-.264.818a5.72 5.72 0 0 0-.08.975Zm11.881-2.636V40h-2.962v-9.51h2.778l.184 2.03Zm-.351 2.399-.695.017c0-.726.088-1.373.264-1.942.176-.574.425-1.06.747-1.459.322-.398.706-.7 1.151-.905a3.504 3.504 0 0 1 1.503-.317c.44 0 .841.065 1.204.194.37.129.686.337.95.624.27.287.474.668.615 1.142.146.47.22 1.05.22 1.74V40h-2.98v-5.994c0-.381-.053-.671-.158-.87a.844.844 0 0 0-.457-.422 2.05 2.05 0 0 0-.73-.114c-.304 0-.562.058-.773.175-.211.118-.381.282-.51.493a2.335 2.335 0 0 0-.272.73 5.01 5.01 0 0 0-.08.922Zm12.171-8.42V40h-2.97V26.5h2.97Zm6.397 3.99V40h-2.97v-9.51h2.97Zm-3.146-2.452c0-.422.152-.768.457-1.037.304-.27.7-.404 1.186-.404s.882.134 1.187.404c.304.27.457.615.457 1.037 0 .422-.153.768-.457 1.037-.305.27-.7.405-1.187.405-.486 0-.882-.135-1.186-.405a1.322 1.322 0 0 1-.457-1.037Zm9.323 4.482V40h-2.962v-9.51h2.778l.184 2.03Zm-.351 2.4-.694.017c0-.726.087-1.373.263-1.942.176-.574.425-1.06.747-1.459.322-.398.706-.7 1.152-.905a3.504 3.504 0 0 1 1.502-.317c.44 0 .841.065 1.205.194.369.129.685.337.949.624.27.287.474.668.615 1.142.146.47.22 1.05.22 1.74V40h-2.98v-5.994c0-.381-.052-.671-.158-.87a.844.844 0 0 0-.457-.422 2.05 2.05 0 0 0-.73-.114c-.304 0-.562.058-.773.175-.21.118-.38.282-.51.493a2.332 2.332 0 0 0-.272.73c-.053.28-.08.588-.08.922ZM54 40.176c-.774 0-1.465-.12-2.074-.36a4.516 4.516 0 0 1-1.547-1.011 4.488 4.488 0 0 1-.958-1.477 4.824 4.824 0 0 1-.325-1.767v-.334c0-.697.096-1.341.29-1.933.193-.598.48-1.12.86-1.564.382-.446.86-.791 1.433-1.038.575-.252 1.243-.378 2.004-.378.674 0 1.278.109 1.81.326.534.216.985.527 1.354.931.375.405.66.894.853 1.468.2.574.299 1.219.299 1.934v1.204h-7.77v-1.855h4.878v-.228c.006-.317-.05-.586-.167-.809a1.15 1.15 0 0 0-.492-.51 1.643 1.643 0 0 0-.791-.175c-.322 0-.589.07-.8.21-.205.141-.366.334-.483.58-.111.24-.19.52-.238.836-.046.316-.07.65-.07 1.002v.334c0 .351.047.67.14.958.1.287.241.533.423.738.187.199.41.354.668.466.263.111.562.167.896.167.404 0 .803-.076 1.196-.229.392-.152.729-.404 1.01-.756l1.345 1.6c-.193.275-.469.542-.826.8a4.57 4.57 0 0 1-1.266.633 5.384 5.384 0 0 1-1.652.237Z" fill="#FEFEFE"/></svg>